<?xml version="1.0" encoding="UTF-8" standalone="no"?><svg xmlns="http://www.w3.org/2000/svg" version="1.1" width="1014" height="1080" viewBox="0 0 2028 2160">
<rect width="2028" height="2160" fill="#000000"/>
<g id="color_1" fill="#582EB2" stroke="#582EB2" stroke-width="2.0" stroke-linejoin="round" vector-effect="non-scaling-stroke">
<path d="M1007.00,1372.00 L984.00,1394.00 L942.00,1443.00 L883.00,1498.00 L827.00,1536.00 L779.00,1560.00 L735.00,1576.00 L655.00,1592.00 L613.00,1596.00 L514.00,1595.00 L538.00,1607.00 L574.00,1619.00 L654.00,1631.00 L721.00,1627.00 L759.00,1619.00 L809.00,1601.00 L851.00,1579.00 L881.00,1559.00 L915.00,1531.00 L915.00,1528.00 L937.00,1507.00 L957.00,1481.00 L985.00,1435.00 L985.00,1430.00 L999.00,1403.00 L1007.00,1372.00 Z M1071.00,1366.00 L1056.00,1388.00 L1044.00,1415.00 L1014.00,1467.00 L976.00,1521.00 L923.00,1576.00 L853.00,1626.00 L785.00,1658.00 L723.00,1678.00 L638.00,1695.00 L658.00,1701.00 L690.00,1705.00 L735.00,1705.00 L803.00,1695.00 L847.00,1681.00 L874.00,1667.00 L879.00,1667.00 L935.00,1631.00 L987.00,1583.00 L1029.00,1523.00 L1049.00,1481.00 L1063.00,1437.00 L1071.00,1389.00 L1071.00,1366.00 Z M941.00,1364.00 L904.00,1388.00 L889.00,1402.00 L882.00,1404.00 L877.00,1410.00 L819.00,1446.00 L757.00,1474.00 L693.00,1492.00 L655.00,1498.00 L562.00,1498.00 L498.00,1488.00 L442.00,1474.00 L423.00,1466.00 L410.00,1465.00 L432.00,1483.00 L468.00,1505.00 L518.00,1527.00 L544.00,1535.00 L594.00,1545.00 L622.00,1547.00 L679.00,1545.00 L703.00,1541.00 L710.00,1537.00 L737.00,1533.00 L783.00,1515.00 L845.00,1479.00 L879.00,1451.00 L905.00,1423.00 L935.00,1381.00 L941.00,1364.00 Z M1131.00,1342.00 L1106.00,1441.00 L1088.00,1491.00 L1068.00,1533.00 L1064.00,1536.00 L1064.00,1541.00 L1016.00,1609.00 L969.00,1656.00 L917.00,1696.00 L865.00,1728.00 L784.00,1765.00 L823.00,1765.00 L851.00,1761.00 L883.00,1753.00 L929.00,1735.00 L977.00,1709.00 L1005.00,1689.00 L1069.00,1625.00 L1091.00,1593.00 L1111.00,1555.00 L1127.00,1513.00 L1131.00,1488.00 L1135.00,1481.00 L1139.00,1453.00 L1139.00,1376.00 L1131.00,1342.00 Z M346.00,1312.00 L366.00,1341.00 L394.00,1369.00 L450.00,1409.00 L514.00,1439.00 L558.00,1451.00 L604.00,1457.00 L675.00,1455.00 L723.00,1445.00 L763.00,1431.00 L803.00,1411.00 L831.00,1393.00 L883.00,1345.00 L880.00,1344.00 L793.00,1380.00 L737.00,1396.00 L659.00,1408.00 L614.00,1408.00 L552.00,1400.00 L492.00,1384.00 L432.00,1360.00 L346.00,1312.00 Z M1183.00,1300.00 L1184.00,1393.00 L1178.00,1465.00 L1166.00,1519.00 L1148.00,1569.00 L1120.00,1623.00 L1080.00,1679.00 L1021.00,1740.00 L952.00,1794.00 L952.00,1797.00 L987.00,1787.00 L1027.00,1769.00 L1077.00,1737.00 L1101.00,1717.00 L1145.00,1671.00 L1175.00,1627.00 L1197.00,1583.00 L1217.00,1515.00 L1217.00,1498.00 L1221.00,1483.00 L1221.00,1428.00 L1207.00,1356.00 L1183.00,1300.00 Z M1225.00,1254.00 L1256.00,1388.00 L1260.00,1428.00 L1260.00,1487.00 L1256.00,1525.00 L1242.00,1581.00 L1220.00,1637.00 L1174.00,1717.00 L1130.00,1774.00 L1126.00,1783.00 L1159.00,1763.00 L1191.00,1737.00 L1217.00,1711.00 L1249.00,1671.00 L1283.00,1609.00 L1303.00,1543.00 L1309.00,1501.00 L1309.00,1446.00 L1299.00,1390.00 L1283.00,1344.00 L1263.00,1304.00 L1237.00,1266.00 L1225.00,1254.00 Z M1250.00,1198.00 L1284.00,1254.00 L1326.00,1344.00 L1342.00,1400.00 L1350.00,1458.00 L1350.00,1513.00 L1338.00,1589.00 L1318.00,1657.00 L1288.00,1724.00 L1289.00,1729.00 L1309.00,1711.00 L1333.00,1681.00 L1357.00,1643.00 L1373.00,1604.00 L1377.00,1601.00 L1389.00,1563.00 L1397.00,1523.00 L1399.00,1442.00 L1389.00,1386.00 L1361.00,1316.00 L1317.00,1254.00 L1279.00,1216.00 L1250.00,1198.00 Z M320.00,1148.00 L336.00,1187.00 L360.00,1225.00 L376.00,1245.00 L420.00,1289.00 L474.00,1325.00 L506.00,1341.00 L550.00,1357.00 L614.00,1369.00 L671.00,1369.00 L705.00,1365.00 L769.00,1347.00 L811.00,1327.00 L831.00,1313.00 L798.00,1314.00 L787.00,1318.00 L715.00,1326.00 L654.00,1326.00 L600.00,1318.00 L560.00,1308.00 L498.00,1284.00 L432.00,1246.00 L382.00,1208.00 L320.00,1148.00 Z M1266.00,1136.00 L1266.00,1139.00 L1334.00,1210.00 L1372.00,1260.00 L1408.00,1324.00 L1426.00,1372.00 L1436.00,1412.00 L1444.00,1470.00 L1444.00,1533.00 L1427.00,1651.00 L1445.00,1623.00 L1463.00,1585.00 L1483.00,1515.00 L1487.00,1485.00 L1487.00,1424.00 L1483.00,1394.00 L1471.00,1346.00 L1447.00,1290.00 L1413.00,1240.00 L1369.00,1196.00 L1341.00,1174.00 L1313.00,1156.00 L1281.00,1140.00 L1266.00,1136.00 Z M1266.00,1074.00 L1339.00,1121.00 L1395.00,1165.00 L1440.00,1210.00 L1476.00,1260.00 L1500.00,1306.00 L1526.00,1380.00 L1538.00,1444.00 L1542.00,1484.00 L1542.00,1531.00 L1545.00,1539.00 L1553.00,1521.00 L1565.00,1471.00 L1569.00,1437.00 L1569.00,1392.00 L1565.00,1356.00 L1553.00,1308.00 L1523.00,1240.00 L1491.00,1194.00 L1471.00,1175.00 L1471.00,1172.00 L1417.00,1128.00 L1387.00,1110.00 L1382.00,1110.00 L1347.00,1092.00 L1301.00,1078.00 L1266.00,1074.00 Z M1252.00,1014.00 L1270.00,1023.00 L1283.00,1025.00 L1288.00,1029.00 L1295.00,1029.00 L1355.00,1051.00 L1409.00,1077.00 L1471.00,1119.00 L1520.00,1166.00 L1560.00,1220.00 L1596.00,1288.00 L1622.00,1362.00 L1634.00,1404.00 L1634.00,1413.00 L1637.00,1413.00 L1641.00,1389.00 L1641.00,1334.00 L1637.00,1300.00 L1627.00,1260.00 L1605.00,1204.00 L1577.00,1158.00 L1555.00,1130.00 L1521.00,1096.00 L1487.00,1070.00 L1451.00,1048.00 L1415.00,1032.00 L1408.00,1032.00 L1403.00,1028.00 L1369.00,1018.00 L1333.00,1012.00 L1252.00,1014.00 Z M340.00,990.00 L344.00,1025.00 L358.00,1069.00 L386.00,1125.00 L412.00,1161.00 L438.00,1189.00 L441.00,1189.00 L460.00,1209.00 L500.00,1237.00 L556.00,1265.00 L618.00,1283.00 L648.00,1287.00 L727.00,1285.00 L759.00,1279.00 L791.00,1267.00 L785.00,1264.00 L698.00,1256.00 L640.00,1244.00 L568.00,1218.00 L518.00,1190.00 L470.00,1154.00 L425.00,1109.00 L395.00,1073.00 L351.00,1002.00 L340.00,990.00 Z M1224.00,960.00 L1228.00,963.00 L1301.00,967.00 L1383.00,981.00 L1443.00,1001.00 L1507.00,1035.00 L1555.00,1071.00 L1610.00,1126.00 L1650.00,1178.00 L1690.00,1245.00 L1695.00,1249.00 L1689.00,1212.00 L1677.00,1174.00 L1655.00,1126.00 L1633.00,1090.00 L1611.00,1062.00 L1573.00,1024.00 L1515.00,982.00 L1479.00,964.00 L1441.00,950.00 L1379.00,938.00 L1292.00,940.00 L1248.00,950.00 L1224.00,960.00 Z M1178.00,916.00 L1310.00,899.00 L1373.00,899.00 L1429.00,907.00 L1461.00,915.00 L1505.00,931.00 L1549.00,953.00 L1587.00,977.00 L1641.00,1019.00 L1709.00,1085.00 L1689.00,1040.00 L1667.00,1006.00 L1645.00,978.00 L1607.00,940.00 L1547.00,898.00 L1509.00,880.00 L1469.00,866.00 L1423.00,856.00 L1379.00,852.00 L1304.00,860.00 L1240.00,880.00 L1204.00,898.00 L1178.00,916.00 Z M398.00,828.00 L394.00,844.00 L394.00,915.00 L402.00,961.00 L416.00,1001.00 L432.00,1035.00 L474.00,1097.00 L508.00,1131.00 L542.00,1157.00 L578.00,1179.00 L620.00,1197.00 L662.00,1209.00 L698.00,1215.00 L739.00,1217.00 L767.00,1213.00 L759.00,1208.00 L740.00,1204.00 L735.00,1200.00 L728.00,1200.00 L686.00,1184.00 L644.00,1164.00 L641.00,1160.00 L632.00,1158.00 L602.00,1140.00 L554.00,1104.00 L503.00,1053.00 L475.00,1015.00 L439.00,949.00 L419.00,899.00 L398.00,828.00 Z M1132.00,886.00 L1132.00,889.00 L1232.00,849.00 L1302.00,829.00 L1354.00,821.00 L1433.00,821.00 L1491.00,831.00 L1575.00,861.00 L1615.00,881.00 L1680.00,923.00 L1691.00,927.00 L1671.00,898.00 L1631.00,858.00 L1585.00,824.00 L1549.00,804.00 L1515.00,790.00 L1475.00,778.00 L1427.00,770.00 L1354.00,772.00 L1278.00,790.00 L1228.00,812.00 L1170.00,850.00 L1132.00,886.00 Z M492.00,692.00 L478.00,728.00 L468.00,778.00 L466.00,831.00 L470.00,875.00 L480.00,919.00 L492.00,953.00 L510.00,989.00 L542.00,1035.00 L590.00,1083.00 L620.00,1105.00 L688.00,1139.00 L728.00,1151.00 L749.00,1153.00 L749.00,1150.00 L686.00,1108.00 L644.00,1074.00 L595.00,1023.00 L551.00,959.00 L525.00,901.00 L505.00,833.00 L497.00,779.00 L492.00,692.00 Z M1631.00,772.00 L1609.00,752.00 L1581.00,734.00 L1545.00,716.00 L1493.00,698.00 L1439.00,688.00 L1378.00,688.00 L1344.00,692.00 L1310.00,700.00 L1266.00,716.00 L1208.00,748.00 L1150.00,796.00 L1116.00,836.00 L1094.00,873.00 L1174.00,817.00 L1228.00,785.00 L1270.00,765.00 L1340.00,743.00 L1396.00,735.00 L1461.00,735.00 L1523.00,743.00 L1573.00,755.00 L1626.00,773.00 L1631.00,772.00 Z M1541.00,642.00 L1509.00,626.00 L1477.00,616.00 L1439.00,608.00 L1391.00,604.00 L1344.00,606.00 L1304.00,612.00 L1236.00,634.00 L1174.00,668.00 L1134.00,700.00 L1110.00,724.00 L1070.00,774.00 L1056.00,798.00 L1038.00,836.00 L1032.00,861.00 L1050.00,841.00 L1055.00,839.00 L1077.00,812.00 L1148.00,745.00 L1202.00,707.00 L1242.00,685.00 L1298.00,663.00 L1376.00,645.00 L1416.00,641.00 L1541.00,642.00 Z M614.00,584.00 L598.00,606.00 L574.00,654.00 L562.00,690.00 L554.00,728.00 L550.00,789.00 L554.00,835.00 L562.00,875.00 L584.00,933.00 L588.00,936.00 L602.00,965.00 L632.00,1005.00 L645.00,1015.00 L658.00,1031.00 L698.00,1063.00 L738.00,1085.00 L751.00,1089.00 L689.00,1015.00 L659.00,971.00 L629.00,913.00 L611.00,863.00 L603.00,831.00 L595.00,771.00 L595.00,710.00 L601.00,652.00 L614.00,584.00 Z M1419.00,540.00 L1371.00,530.00 L1308.00,530.00 L1246.00,540.00 L1204.00,554.00 L1168.00,570.00 L1122.00,598.00 L1064.00,648.00 L1036.00,680.00 L1008.00,722.00 L978.00,788.00 L966.00,834.00 L964.00,865.00 L1003.00,805.00 L1011.00,788.00 L1049.00,736.00 L1096.00,683.00 L1146.00,641.00 L1192.00,611.00 L1260.00,579.00 L1338.00,555.00 L1419.00,540.00 Z M762.00,500.00 L726.00,534.00 L710.00,554.00 L670.00,622.00 L656.00,660.00 L644.00,710.00 L640.00,779.00 L644.00,819.00 L652.00,857.00 L680.00,925.00 L724.00,989.00 L750.00,1015.00 L765.00,1025.00 L729.00,943.00 L711.00,893.00 L697.00,841.00 L691.00,797.00 L691.00,724.00 L703.00,654.00 L725.00,584.00 L761.00,509.00 L762.00,500.00 Z M1263.00,470.00 L1222.00,472.00 L1190.00,478.00 L1144.00,492.00 L1116.00,504.00 L1076.00,526.00 L1036.00,554.00 L984.00,604.00 L942.00,664.00 L922.00,704.00 L910.00,738.00 L900.00,778.00 L896.00,812.00 L896.00,853.00 L900.00,885.00 L903.00,883.00 L931.00,794.00 L955.00,738.00 L959.00,735.00 L977.00,698.00 L1027.00,630.00 L1072.00,585.00 L1112.00,553.00 L1168.00,517.00 L1263.00,470.00 Z M925.00,452.00 L906.00,460.00 L874.00,482.00 L810.00,546.00 L774.00,600.00 L772.00,609.00 L768.00,612.00 L758.00,634.00 L742.00,680.00 L732.00,732.00 L734.00,817.00 L746.00,869.00 L762.00,911.00 L780.00,945.00 L796.00,967.00 L797.00,950.00 L787.00,903.00 L779.00,841.00 L779.00,756.00 L795.00,674.00 L817.00,616.00 L845.00,562.00 L867.00,531.00 L869.00,524.00 L925.00,452.00 Z M1095.00,440.00 L1072.00,446.00 L1030.00,464.00 L1027.00,468.00 L998.00,482.00 L956.00,512.00 L896.00,572.00 L860.00,626.00 L832.00,692.00 L824.00,724.00 L818.00,780.00 L824.00,857.00 L832.00,889.00 L844.00,919.00 L849.00,891.00 L849.00,854.00 L857.00,786.00 L879.00,706.00 L903.00,657.00 L903.00,652.00 L941.00,590.00 L967.00,558.00 L1026.00,497.00 L1064.00,465.00 L1095.00,443.00 L1095.00,440.00 Z"/>
</g>
<g id="color_2" fill="#2F1B5C" stroke="#2F1B5C" stroke-width="2.0" stroke-linejoin="round" vector-effect="non-scaling-stroke">
<path d="M1011.00,1364.00 L996.00,1376.00 L944.00,1437.00 L891.00,1488.00 L839.00,1526.00 L781.00,1556.00 L731.00,1574.00 L649.00,1590.00 L593.00,1594.00 L506.00,1590.00 L504.00,1593.00 L516.00,1601.00 L564.00,1619.00 L644.00,1633.00 L687.00,1633.00 L725.00,1629.00 L781.00,1615.00 L811.00,1603.00 L853.00,1581.00 L883.00,1561.00 L939.00,1509.00 L971.00,1465.00 L997.00,1415.00 L1011.00,1375.00 L1011.00,1364.00 Z M1008.00,1372.00 L1000.00,1403.00 L986.00,1430.00 L986.00,1435.00 L970.00,1463.00 L938.00,1507.00 L915.00,1532.00 L881.00,1560.00 L851.00,1580.00 L809.00,1602.00 L759.00,1620.00 L721.00,1628.00 L654.00,1632.00 L574.00,1620.00 L538.00,1608.00 L513.00,1595.00 L613.00,1595.00 L655.00,1591.00 L735.00,1575.00 L779.00,1559.00 L827.00,1535.00 L883.00,1497.00 L911.00,1473.00 L963.00,1419.00 L983.00,1394.00 L1006.00,1371.00 L1008.00,1372.00 Z M1075.00,1358.00 L1072.00,1356.00 L1068.00,1360.00 L1012.00,1465.00 L974.00,1519.00 L921.00,1574.00 L899.00,1592.00 L851.00,1624.00 L777.00,1658.00 L703.00,1680.00 L632.00,1692.00 L630.00,1697.00 L676.00,1707.00 L749.00,1707.00 L797.00,1699.00 L839.00,1687.00 L873.00,1673.00 L937.00,1633.00 L967.00,1607.00 L997.00,1575.00 L1031.00,1525.00 L1047.00,1493.00 L1065.00,1441.00 L1073.00,1399.00 L1075.00,1358.00 Z M1072.00,1366.00 L1072.00,1389.00 L1064.00,1437.00 L1050.00,1481.00 L1030.00,1523.00 L988.00,1583.00 L935.00,1632.00 L879.00,1668.00 L874.00,1668.00 L847.00,1682.00 L803.00,1696.00 L735.00,1706.00 L690.00,1706.00 L648.00,1700.00 L637.00,1695.00 L646.00,1691.00 L723.00,1677.00 L785.00,1657.00 L853.00,1625.00 L923.00,1575.00 L975.00,1521.00 L1013.00,1467.00 L1063.00,1374.00 L1070.00,1365.00 L1072.00,1366.00 Z M949.00,1358.00 L942.00,1358.00 L875.00,1408.00 L817.00,1444.00 L765.00,1468.00 L689.00,1490.00 L647.00,1496.00 L572.00,1496.00 L494.00,1484.00 L413.00,1460.00 L404.00,1460.00 L404.00,1463.00 L424.00,1481.00 L458.00,1503.00 L490.00,1519.00 L534.00,1535.00 L566.00,1543.00 L610.00,1549.00 L661.00,1549.00 L705.00,1543.00 L739.00,1535.00 L785.00,1517.00 L823.00,1497.00 L855.00,1475.00 L915.00,1415.00 L943.00,1373.00 L949.00,1358.00 Z M942.00,1364.00 L936.00,1381.00 L906.00,1423.00 L879.00,1452.00 L845.00,1480.00 L783.00,1516.00 L737.00,1534.00 L710.00,1538.00 L703.00,1542.00 L679.00,1546.00 L622.00,1548.00 L594.00,1546.00 L544.00,1536.00 L518.00,1528.00 L468.00,1506.00 L432.00,1484.00 L409.00,1465.00 L415.00,1463.00 L437.00,1469.00 L442.00,1473.00 L498.00,1487.00 L562.00,1497.00 L655.00,1497.00 L693.00,1491.00 L757.00,1473.00 L819.00,1445.00 L865.00,1417.00 L882.00,1403.00 L889.00,1401.00 L896.00,1393.00 L936.00,1365.00 L942.00,1364.00 Z M1131.00,1332.00 L1128.00,1334.00 L1106.00,1431.00 L1086.00,1489.00 L1062.00,1539.00 L1014.00,1607.00 L965.00,1656.00 L901.00,1704.00 L843.00,1736.00 L778.00,1762.00 L774.00,1766.00 L776.00,1769.00 L809.00,1769.00 L855.00,1763.00 L923.00,1741.00 L959.00,1723.00 L1007.00,1691.00 L1071.00,1627.00 L1095.00,1591.00 L1115.00,1553.00 L1131.00,1509.00 L1137.00,1483.00 L1143.00,1433.00 L1143.00,1392.00 L1135.00,1338.00 L1131.00,1332.00 Z M1131.00,1341.00 L1134.00,1344.00 L1140.00,1376.00 L1140.00,1453.00 L1136.00,1481.00 L1132.00,1488.00 L1128.00,1513.00 L1112.00,1555.00 L1092.00,1593.00 L1070.00,1625.00 L1005.00,1690.00 L977.00,1710.00 L929.00,1736.00 L883.00,1754.00 L851.00,1762.00 L823.00,1766.00 L784.00,1766.00 L786.00,1761.00 L819.00,1749.00 L865.00,1727.00 L917.00,1695.00 L969.00,1655.00 L1015.00,1609.00 L1063.00,1541.00 L1063.00,1536.00 L1067.00,1533.00 L1087.00,1491.00 L1105.00,1441.00 L1117.00,1388.00 L1121.00,1381.00 L1121.00,1372.00 L1125.00,1365.00 L1125.00,1356.00 L1131.00,1341.00 Z M338.00,1306.00 L352.00,1329.00 L392.00,1371.00 L444.00,1409.00 L482.00,1429.00 L518.00,1443.00 L554.00,1453.00 L596.00,1459.00 L679.00,1457.00 L719.00,1449.00 L755.00,1437.00 L805.00,1413.00 L820.00,1401.00 L827.00,1399.00 L873.00,1361.00 L889.00,1343.00 L889.00,1338.00 L801.00,1374.00 L725.00,1396.00 L675.00,1404.00 L600.00,1404.00 L538.00,1394.00 L468.00,1372.00 L406.00,1344.00 L365.00,1318.00 L354.00,1314.00 L345.00,1306.00 L338.00,1306.00 Z M345.00,1312.00 L432.00,1359.00 L492.00,1383.00 L552.00,1399.00 L614.00,1407.00 L659.00,1407.00 L737.00,1395.00 L793.00,1379.00 L880.00,1343.00 L884.00,1345.00 L831.00,1394.00 L803.00,1412.00 L763.00,1432.00 L723.00,1446.00 L675.00,1456.00 L604.00,1458.00 L558.00,1452.00 L514.00,1440.00 L450.00,1410.00 L394.00,1370.00 L365.00,1341.00 L345.00,1312.00 Z M1183.00,1294.00 L1178.00,1296.00 L1180.00,1419.00 L1176.00,1459.00 L1168.00,1503.00 L1146.00,1567.00 L1118.00,1621.00 L1080.00,1675.00 L1019.00,1738.00 L971.00,1778.00 L946.00,1796.00 L948.00,1801.00 L985.00,1791.00 L1029.00,1771.00 L1073.00,1743.00 L1105.00,1717.00 L1135.00,1687.00 L1157.00,1659.00 L1179.00,1625.00 L1199.00,1585.00 L1219.00,1519.00 L1223.00,1489.00 L1223.00,1422.00 L1211.00,1360.00 L1201.00,1330.00 L1183.00,1294.00 Z M1183.00,1299.00 L1208.00,1356.00 L1222.00,1428.00 L1222.00,1483.00 L1218.00,1498.00 L1218.00,1515.00 L1198.00,1583.00 L1176.00,1627.00 L1146.00,1671.00 L1101.00,1718.00 L1077.00,1738.00 L1027.00,1770.00 L987.00,1788.00 L952.00,1798.00 L952.00,1793.00 L1021.00,1739.00 L1079.00,1679.00 L1119.00,1623.00 L1147.00,1569.00 L1165.00,1519.00 L1177.00,1465.00 L1183.00,1393.00 L1183.00,1299.00 Z M1223.00,1246.00 L1220.00,1246.00 L1220.00,1257.00 L1244.00,1342.00 L1254.00,1396.00 L1258.00,1434.00 L1258.00,1481.00 L1254.00,1521.00 L1232.00,1601.00 L1198.00,1673.00 L1160.00,1733.00 L1120.00,1782.00 L1120.00,1787.00 L1125.00,1787.00 L1147.00,1775.00 L1191.00,1741.00 L1219.00,1713.00 L1251.00,1673.00 L1287.00,1607.00 L1307.00,1537.00 L1313.00,1464.00 L1309.00,1424.00 L1301.00,1386.00 L1287.00,1346.00 L1265.00,1302.00 L1223.00,1246.00 Z M1225.00,1253.00 L1238.00,1266.00 L1264.00,1304.00 L1284.00,1344.00 L1300.00,1390.00 L1310.00,1446.00 L1310.00,1501.00 L1304.00,1543.00 L1284.00,1609.00 L1250.00,1671.00 L1218.00,1711.00 L1191.00,1738.00 L1159.00,1764.00 L1126.00,1784.00 L1125.00,1780.00 L1155.00,1743.00 L1187.00,1695.00 L1215.00,1640.00 L1219.00,1637.00 L1241.00,1581.00 L1255.00,1525.00 L1259.00,1487.00 L1257.00,1406.00 L1243.00,1330.00 L1239.00,1323.00 L1239.00,1314.00 L1223.00,1257.00 L1225.00,1253.00 Z M1244.00,1192.00 L1282.00,1256.00 L1320.00,1336.00 L1340.00,1404.00 L1348.00,1466.00 L1346.00,1525.00 L1338.00,1577.00 L1320.00,1643.00 L1282.00,1730.00 L1282.00,1735.00 L1287.00,1735.00 L1309.00,1715.00 L1335.00,1683.00 L1359.00,1645.00 L1379.00,1603.00 L1391.00,1567.00 L1399.00,1529.00 L1403.00,1485.00 L1401.00,1434.00 L1385.00,1364.00 L1357.00,1304.00 L1319.00,1252.00 L1279.00,1212.00 L1257.00,1196.00 L1244.00,1192.00 Z M1250.00,1197.00 L1279.00,1215.00 L1318.00,1254.00 L1362.00,1316.00 L1390.00,1386.00 L1400.00,1442.00 L1398.00,1523.00 L1390.00,1563.00 L1378.00,1601.00 L1374.00,1604.00 L1358.00,1643.00 L1334.00,1681.00 L1310.00,1711.00 L1289.00,1730.00 L1287.00,1724.00 L1309.00,1677.00 L1327.00,1627.00 L1341.00,1571.00 L1349.00,1513.00 L1349.00,1458.00 L1341.00,1400.00 L1325.00,1344.00 L1283.00,1254.00 L1273.00,1241.00 L1250.00,1197.00 Z M314.00,1140.00 L316.00,1153.00 L336.00,1193.00 L358.00,1227.00 L418.00,1291.00 L468.00,1325.00 L508.00,1345.00 L554.00,1361.00 L608.00,1371.00 L677.00,1371.00 L709.00,1367.00 L771.00,1349.00 L813.00,1329.00 L841.00,1311.00 L841.00,1308.00 L836.00,1306.00 L749.00,1320.00 L664.00,1324.00 L604.00,1316.00 L556.00,1304.00 L528.00,1294.00 L478.00,1270.00 L414.00,1230.00 L366.00,1190.00 L323.00,1144.00 L314.00,1140.00 Z M319.00,1148.00 L321.00,1147.00 L382.00,1207.00 L432.00,1245.00 L498.00,1283.00 L560.00,1307.00 L600.00,1317.00 L654.00,1325.00 L715.00,1325.00 L787.00,1317.00 L798.00,1313.00 L832.00,1313.00 L811.00,1328.00 L769.00,1348.00 L705.00,1366.00 L671.00,1370.00 L614.00,1370.00 L550.00,1358.00 L506.00,1342.00 L474.00,1326.00 L420.00,1290.00 L375.00,1245.00 L359.00,1225.00 L335.00,1187.00 L319.00,1148.00 Z M1258.00,1130.00 L1258.00,1135.00 L1318.00,1196.00 L1366.00,1256.00 L1392.00,1298.00 L1422.00,1368.00 L1434.00,1414.00 L1442.00,1480.00 L1440.00,1549.00 L1434.00,1597.00 L1422.00,1648.00 L1422.00,1655.00 L1425.00,1657.00 L1435.00,1645.00 L1459.00,1601.00 L1477.00,1551.00 L1485.00,1519.00 L1489.00,1491.00 L1489.00,1418.00 L1477.00,1356.00 L1449.00,1288.00 L1429.00,1256.00 L1403.00,1224.00 L1369.00,1192.00 L1329.00,1162.00 L1297.00,1144.00 L1258.00,1130.00 Z M1266.00,1135.00 L1281.00,1139.00 L1313.00,1155.00 L1341.00,1173.00 L1369.00,1195.00 L1414.00,1240.00 L1448.00,1290.00 L1472.00,1346.00 L1484.00,1394.00 L1488.00,1424.00 L1488.00,1485.00 L1484.00,1515.00 L1464.00,1585.00 L1446.00,1623.00 L1427.00,1652.00 L1425.00,1644.00 L1435.00,1601.00 L1443.00,1533.00 L1443.00,1470.00 L1435.00,1412.00 L1425.00,1372.00 L1407.00,1324.00 L1371.00,1260.00 L1319.00,1194.00 L1265.00,1139.00 L1266.00,1135.00 Z M1256.00,1070.00 L1256.00,1073.00 L1337.00,1123.00 L1391.00,1165.00 L1440.00,1214.00 L1474.00,1262.00 L1496.00,1304.00 L1522.00,1376.00 L1536.00,1450.00 L1540.00,1541.00 L1545.00,1545.00 L1559.00,1511.00 L1569.00,1463.00 L1571.00,1382.00 L1561.00,1324.00 L1545.00,1278.00 L1521.00,1232.00 L1493.00,1192.00 L1449.00,1148.00 L1413.00,1122.00 L1373.00,1100.00 L1339.00,1086.00 L1287.00,1072.00 L1256.00,1070.00 Z M1266.00,1073.00 L1301.00,1077.00 L1347.00,1091.00 L1382.00,1109.00 L1387.00,1109.00 L1417.00,1127.00 L1472.00,1172.00 L1472.00,1175.00 L1492.00,1194.00 L1524.00,1240.00 L1554.00,1308.00 L1566.00,1356.00 L1570.00,1392.00 L1570.00,1437.00 L1566.00,1471.00 L1554.00,1521.00 L1545.00,1540.00 L1541.00,1531.00 L1541.00,1484.00 L1537.00,1444.00 L1525.00,1380.00 L1499.00,1306.00 L1475.00,1260.00 L1439.00,1210.00 L1395.00,1166.00 L1339.00,1122.00 L1268.00,1078.00 L1266.00,1073.00 Z M1242.00,1012.00 L1242.00,1017.00 L1327.00,1043.00 L1383.00,1067.00 L1398.00,1077.00 L1403.00,1077.00 L1459.00,1113.00 L1520.00,1170.00 L1558.00,1222.00 L1590.00,1282.00 L1614.00,1344.00 L1632.00,1417.00 L1637.00,1419.00 L1641.00,1413.00 L1645.00,1348.00 L1641.00,1308.00 L1633.00,1270.00 L1621.00,1234.00 L1603.00,1194.00 L1575.00,1150.00 L1557.00,1128.00 L1523.00,1094.00 L1495.00,1072.00 L1457.00,1048.00 L1417.00,1030.00 L1365.00,1014.00 L1325.00,1008.00 L1266.00,1008.00 L1242.00,1012.00 Z M1252.00,1013.00 L1333.00,1011.00 L1369.00,1017.00 L1403.00,1027.00 L1408.00,1031.00 L1415.00,1031.00 L1451.00,1047.00 L1487.00,1069.00 L1521.00,1095.00 L1556.00,1130.00 L1578.00,1158.00 L1606.00,1204.00 L1632.00,1274.00 L1642.00,1334.00 L1642.00,1389.00 L1637.00,1414.00 L1633.00,1413.00 L1633.00,1404.00 L1621.00,1362.00 L1595.00,1288.00 L1559.00,1220.00 L1519.00,1166.00 L1471.00,1120.00 L1435.00,1094.00 L1428.00,1092.00 L1423.00,1086.00 L1355.00,1052.00 L1254.00,1018.00 L1252.00,1013.00 Z M336.00,978.00 L336.00,999.00 L346.00,1043.00 L350.00,1048.00 L350.00,1055.00 L360.00,1081.00 L384.00,1127.00 L410.00,1163.00 L436.00,1191.00 L466.00,1217.00 L498.00,1239.00 L554.00,1267.00 L598.00,1281.00 L642.00,1289.00 L717.00,1289.00 L745.00,1285.00 L787.00,1273.00 L803.00,1265.00 L801.00,1262.00 L702.00,1254.00 L636.00,1240.00 L576.00,1218.00 L530.00,1194.00 L470.00,1150.00 L425.00,1105.00 L393.00,1065.00 L359.00,1013.00 L345.00,986.00 L336.00,978.00 Z M339.00,990.00 L348.00,996.00 L378.00,1047.00 L426.00,1109.00 L470.00,1153.00 L518.00,1189.00 L568.00,1217.00 L640.00,1243.00 L712.00,1257.00 L785.00,1263.00 L792.00,1267.00 L741.00,1284.00 L709.00,1288.00 L648.00,1288.00 L618.00,1284.00 L556.00,1266.00 L500.00,1238.00 L460.00,1210.00 L441.00,1190.00 L438.00,1190.00 L411.00,1161.00 L385.00,1125.00 L357.00,1069.00 L343.00,1025.00 L339.00,990.00 Z M1212.00,962.00 L1212.00,965.00 L1309.00,971.00 L1387.00,985.00 L1441.00,1003.00 L1505.00,1037.00 L1551.00,1071.00 L1608.00,1128.00 L1648.00,1180.00 L1690.00,1251.00 L1697.00,1255.00 L1697.00,1234.00 L1683.00,1182.00 L1673.00,1156.00 L1647.00,1106.00 L1613.00,1060.00 L1573.00,1020.00 L1527.00,986.00 L1491.00,966.00 L1437.00,946.00 L1365.00,934.00 L1320.00,934.00 L1286.00,938.00 L1232.00,952.00 L1212.00,962.00 Z M1223.00,960.00 L1248.00,949.00 L1292.00,939.00 L1379.00,937.00 L1441.00,949.00 L1479.00,963.00 L1515.00,981.00 L1573.00,1023.00 L1612.00,1062.00 L1634.00,1090.00 L1656.00,1126.00 L1678.00,1174.00 L1690.00,1212.00 L1696.00,1249.00 L1689.00,1245.00 L1649.00,1178.00 L1609.00,1126.00 L1555.00,1072.00 L1507.00,1036.00 L1443.00,1002.00 L1383.00,982.00 L1301.00,968.00 L1228.00,964.00 L1223.00,960.00 Z M1170.00,918.00 L1170.00,921.00 L1181.00,921.00 L1214.00,913.00 L1320.00,901.00 L1385.00,903.00 L1459.00,917.00 L1503.00,933.00 L1547.00,955.00 L1591.00,983.00 L1639.00,1021.00 L1702.00,1082.00 L1710.00,1093.00 L1715.00,1093.00 L1703.00,1060.00 L1679.00,1018.00 L1649.00,978.00 L1609.00,938.00 L1553.00,898.00 L1503.00,874.00 L1441.00,856.00 L1393.00,850.00 L1360.00,850.00 L1310.00,856.00 L1270.00,866.00 L1238.00,878.00 L1202.00,896.00 L1170.00,918.00 Z M1177.00,916.00 L1204.00,897.00 L1240.00,879.00 L1304.00,859.00 L1379.00,851.00 L1423.00,855.00 L1469.00,865.00 L1509.00,879.00 L1547.00,897.00 L1607.00,939.00 L1646.00,978.00 L1668.00,1006.00 L1690.00,1040.00 L1710.00,1085.00 L1708.00,1086.00 L1641.00,1020.00 L1587.00,978.00 L1549.00,954.00 L1505.00,932.00 L1461.00,916.00 L1429.00,908.00 L1373.00,900.00 L1310.00,900.00 L1194.00,914.00 L1185.00,918.00 L1177.00,916.00 Z M398.00,816.00 L394.00,822.00 L390.00,852.00 L390.00,903.00 L396.00,949.00 L412.00,999.00 L430.00,1037.00 L448.00,1067.00 L474.00,1101.00 L504.00,1131.00 L546.00,1163.00 L576.00,1181.00 L622.00,1201.00 L658.00,1211.00 L710.00,1219.00 L755.00,1219.00 L777.00,1215.00 L775.00,1210.00 L768.00,1210.00 L763.00,1206.00 L750.00,1204.00 L694.00,1184.00 L624.00,1150.00 L556.00,1102.00 L507.00,1053.00 L471.00,1003.00 L441.00,947.00 L415.00,877.00 L405.00,832.00 L398.00,816.00 Z M398.00,827.00 L404.00,838.00 L420.00,899.00 L440.00,949.00 L476.00,1015.00 L504.00,1053.00 L554.00,1103.00 L602.00,1139.00 L664.00,1173.00 L716.00,1195.00 L759.00,1207.00 L767.00,1211.00 L767.00,1214.00 L739.00,1218.00 L698.00,1216.00 L662.00,1210.00 L620.00,1198.00 L578.00,1180.00 L542.00,1158.00 L508.00,1132.00 L473.00,1097.00 L431.00,1035.00 L415.00,1001.00 L401.00,961.00 L393.00,915.00 L393.00,844.00 L395.00,830.00 L398.00,827.00 Z M1124.00,890.00 L1124.00,895.00 L1224.00,855.00 L1306.00,831.00 L1362.00,823.00 L1425.00,823.00 L1487.00,833.00 L1553.00,855.00 L1623.00,889.00 L1690.00,933.00 L1699.00,933.00 L1673.00,896.00 L1631.00,854.00 L1581.00,818.00 L1519.00,788.00 L1479.00,776.00 L1435.00,768.00 L1348.00,770.00 L1276.00,788.00 L1230.00,808.00 L1184.00,836.00 L1152.00,862.00 L1124.00,890.00 Z M1131.00,886.00 L1170.00,849.00 L1228.00,811.00 L1278.00,789.00 L1354.00,771.00 L1427.00,769.00 L1475.00,777.00 L1515.00,789.00 L1549.00,803.00 L1585.00,823.00 L1631.00,857.00 L1672.00,898.00 L1692.00,927.00 L1680.00,924.00 L1649.00,902.00 L1575.00,862.00 L1491.00,832.00 L1433.00,822.00 L1354.00,822.00 L1302.00,830.00 L1232.00,850.00 L1133.00,890.00 L1131.00,886.00 Z M1641.00,776.00 L1627.00,762.00 L1591.00,736.00 L1517.00,702.00 L1447.00,686.00 L1370.00,686.00 L1340.00,690.00 L1308.00,698.00 L1264.00,714.00 L1232.00,730.00 L1184.00,762.00 L1118.00,828.00 L1096.00,860.00 L1088.00,879.00 L1097.00,877.00 L1152.00,835.00 L1234.00,785.00 L1300.00,757.00 L1346.00,745.00 L1408.00,737.00 L1491.00,741.00 L1569.00,757.00 L1632.00,779.00 L1641.00,779.00 L1641.00,776.00 Z M1632.00,772.00 L1626.00,774.00 L1573.00,756.00 L1523.00,744.00 L1461.00,736.00 L1396.00,736.00 L1340.00,744.00 L1286.00,760.00 L1228.00,786.00 L1150.00,834.00 L1097.00,874.00 L1093.00,873.00 L1115.00,836.00 L1149.00,796.00 L1208.00,747.00 L1266.00,715.00 L1310.00,699.00 L1344.00,691.00 L1378.00,687.00 L1439.00,687.00 L1493.00,697.00 L1545.00,715.00 L1581.00,733.00 L1609.00,751.00 L1632.00,772.00 Z M494.00,684.00 L484.00,700.00 L468.00,760.00 L464.00,788.00 L464.00,851.00 L478.00,923.00 L506.00,987.00 L542.00,1039.00 L586.00,1083.00 L638.00,1119.00 L680.00,1139.00 L724.00,1153.00 L761.00,1157.00 L759.00,1152.00 L708.00,1120.00 L648.00,1074.00 L597.00,1021.00 L551.00,953.00 L527.00,899.00 L509.00,837.00 L499.00,769.00 L497.00,686.00 L494.00,684.00 Z M492.00,691.00 L496.00,710.00 L498.00,779.00 L506.00,833.00 L526.00,901.00 L552.00,959.00 L596.00,1023.00 L644.00,1073.00 L686.00,1107.00 L749.00,1149.00 L749.00,1154.00 L728.00,1152.00 L688.00,1140.00 L620.00,1106.00 L590.00,1084.00 L541.00,1035.00 L509.00,989.00 L491.00,953.00 L479.00,919.00 L469.00,875.00 L465.00,831.00 L467.00,778.00 L477.00,728.00 L492.00,691.00 Z M1551.00,644.00 L1535.00,634.00 L1487.00,616.00 L1433.00,604.00 L1409.00,602.00 L1334.00,604.00 L1276.00,616.00 L1271.00,620.00 L1248.00,626.00 L1198.00,650.00 L1172.00,666.00 L1130.00,700.00 L1108.00,722.00 L1068.00,772.00 L1054.00,796.00 L1034.00,838.00 L1026.00,869.00 L1031.00,869.00 L1077.00,816.00 L1150.00,747.00 L1204.00,709.00 L1254.00,683.00 L1308.00,663.00 L1384.00,647.00 L1430.00,643.00 L1489.00,643.00 L1520.00,647.00 L1551.00,647.00 L1551.00,644.00 Z M1542.00,642.00 L1416.00,642.00 L1376.00,646.00 L1298.00,664.00 L1256.00,680.00 L1202.00,708.00 L1148.00,746.00 L1088.00,802.00 L1088.00,805.00 L1078.00,812.00 L1056.00,839.00 L1050.00,842.00 L1033.00,862.00 L1031.00,861.00 L1037.00,836.00 L1055.00,798.00 L1069.00,774.00 L1109.00,724.00 L1134.00,699.00 L1174.00,667.00 L1236.00,633.00 L1304.00,611.00 L1344.00,605.00 L1391.00,603.00 L1439.00,607.00 L1477.00,615.00 L1509.00,625.00 L1542.00,642.00 Z M616.00,576.00 L600.00,596.00 L578.00,638.00 L562.00,680.00 L552.00,722.00 L548.00,756.00 L548.00,803.00 L560.00,877.00 L568.00,903.00 L588.00,947.00 L608.00,979.00 L634.00,1011.00 L672.00,1047.00 L702.00,1069.00 L752.00,1095.00 L759.00,1095.00 L759.00,1090.00 L715.00,1043.00 L665.00,975.00 L633.00,915.00 L611.00,853.00 L599.00,783.00 L597.00,724.00 L605.00,644.00 L619.00,583.00 L616.00,576.00 Z M612.00,585.00 L614.00,595.00 L602.00,652.00 L596.00,710.00 L596.00,771.00 L604.00,831.00 L612.00,863.00 L630.00,913.00 L660.00,971.00 L690.00,1015.00 L740.00,1072.00 L751.00,1090.00 L738.00,1086.00 L698.00,1064.00 L658.00,1032.00 L655.00,1026.00 L631.00,1005.00 L609.00,977.00 L583.00,933.00 L561.00,875.00 L553.00,835.00 L549.00,789.00 L553.00,728.00 L561.00,690.00 L573.00,654.00 L589.00,625.00 L589.00,620.00 L612.00,585.00 Z M1427.00,540.00 L1413.00,534.00 L1359.00,526.00 L1324.00,526.00 L1260.00,534.00 L1206.00,550.00 L1178.00,562.00 L1114.00,600.00 L1070.00,638.00 L1042.00,668.00 L1006.00,720.00 L984.00,764.00 L972.00,798.00 L964.00,830.00 L960.00,871.00 L963.00,873.00 L1007.00,800.00 L1031.00,764.00 L1069.00,716.00 L1118.00,667.00 L1162.00,633.00 L1194.00,613.00 L1238.00,591.00 L1284.00,573.00 L1360.00,553.00 L1404.00,545.00 L1427.00,543.00 L1427.00,540.00 Z M1420.00,540.00 L1338.00,556.00 L1282.00,572.00 L1240.00,588.00 L1192.00,612.00 L1183.00,620.00 L1160.00,632.00 L1116.00,666.00 L1070.00,712.00 L1016.00,782.00 L965.00,866.00 L963.00,865.00 L965.00,834.00 L977.00,788.00 L1007.00,722.00 L1035.00,680.00 L1063.00,648.00 L1122.00,597.00 L1168.00,569.00 L1204.00,553.00 L1246.00,539.00 L1308.00,529.00 L1371.00,529.00 L1417.00,537.00 L1420.00,540.00 Z M766.00,492.00 L716.00,542.00 L688.00,582.00 L666.00,624.00 L654.00,656.00 L642.00,706.00 L638.00,738.00 L638.00,793.00 L642.00,825.00 L652.00,867.00 L680.00,931.00 L700.00,963.00 L724.00,993.00 L764.00,1031.00 L773.00,1033.00 L733.00,945.00 L713.00,891.00 L699.00,835.00 L693.00,789.00 L693.00,732.00 L705.00,656.00 L733.00,572.00 L771.00,492.00 L766.00,492.00 Z M762.00,499.00 L762.00,509.00 L726.00,584.00 L704.00,654.00 L692.00,724.00 L692.00,797.00 L698.00,841.00 L712.00,893.00 L730.00,943.00 L766.00,1022.00 L765.00,1026.00 L750.00,1016.00 L723.00,989.00 L679.00,925.00 L651.00,857.00 L643.00,819.00 L639.00,779.00 L643.00,710.00 L655.00,660.00 L669.00,622.00 L709.00,554.00 L725.00,534.00 L762.00,499.00 Z M1271.00,468.00 L1248.00,466.00 L1186.00,476.00 L1122.00,498.00 L1050.00,540.00 L1020.00,564.00 L982.00,602.00 L942.00,658.00 L926.00,688.00 L908.00,734.00 L898.00,774.00 L894.00,806.00 L894.00,869.00 L900.00,893.00 L909.00,875.00 L909.00,868.00 L913.00,863.00 L913.00,856.00 L917.00,851.00 L917.00,844.00 L945.00,766.00 L979.00,700.00 L1027.00,634.00 L1076.00,585.00 L1114.00,555.00 L1170.00,519.00 L1212.00,497.00 L1269.00,473.00 L1271.00,468.00 Z M1263.00,469.00 L1261.00,474.00 L1214.00,494.00 L1168.00,518.00 L1112.00,554.00 L1072.00,586.00 L1028.00,630.00 L998.00,668.00 L956.00,738.00 L956.00,743.00 L938.00,778.00 L904.00,883.00 L900.00,886.00 L895.00,853.00 L895.00,812.00 L899.00,778.00 L909.00,738.00 L921.00,704.00 L941.00,664.00 L983.00,604.00 L1036.00,553.00 L1076.00,525.00 L1116.00,503.00 L1144.00,491.00 L1190.00,477.00 L1222.00,471.00 L1263.00,469.00 Z M935.00,444.00 L910.00,454.00 L882.00,472.00 L862.00,488.00 L810.00,542.00 L772.00,598.00 L752.00,640.00 L738.00,684.00 L728.00,744.00 L728.00,789.00 L736.00,841.00 L758.00,909.00 L778.00,947.00 L798.00,975.00 L801.00,975.00 L801.00,956.00 L789.00,897.00 L781.00,831.00 L781.00,764.00 L795.00,684.00 L817.00,622.00 L853.00,554.00 L887.00,504.00 L929.00,455.00 L935.00,444.00 Z M925.00,451.00 L916.00,467.00 L870.00,524.00 L838.00,576.00 L810.00,634.00 L810.00,641.00 L804.00,650.00 L788.00,706.00 L780.00,756.00 L780.00,841.00 L788.00,903.00 L798.00,950.00 L796.00,968.00 L779.00,945.00 L761.00,911.00 L745.00,869.00 L731.00,801.00 L731.00,732.00 L737.00,696.00 L747.00,660.00 L765.00,616.00 L785.00,580.00 L809.00,546.00 L874.00,481.00 L906.00,459.00 L925.00,451.00 Z M1103.00,436.00 L1080.00,440.00 L1040.00,456.00 L1002.00,476.00 L954.00,510.00 L896.00,568.00 L858.00,624.00 L844.00,652.00 L828.00,696.00 L816.00,760.00 L816.00,819.00 L820.00,851.00 L828.00,885.00 L844.00,925.00 L849.00,923.00 L855.00,822.00 L863.00,772.00 L881.00,708.00 L899.00,666.00 L905.00,659.00 L905.00,654.00 L943.00,592.00 L979.00,548.00 L1042.00,487.00 L1103.00,441.00 L1103.00,436.00 Z M1095.00,439.00 L1095.00,444.00 L1026.00,498.00 L968.00,558.00 L942.00,590.00 L904.00,652.00 L904.00,657.00 L880.00,706.00 L862.00,768.00 L850.00,854.00 L850.00,891.00 L844.00,920.00 L835.00,901.00 L823.00,857.00 L817.00,780.00 L823.00,724.00 L831.00,692.00 L859.00,626.00 L895.00,572.00 L956.00,511.00 L998.00,481.00 L1027.00,467.00 L1030.00,463.00 L1072.00,445.00 L1095.00,439.00 Z"/>
</g>
</svg>